# xmcd
#
# Track frame offsets:
# 150
# 15745
# 33070
# 48558
# 61830
# 79100
# 94285
# 110395
# 127905
# 143625
# 157340
# 172855
# 190615
#
# Disc length: 2724 seconds
#
#
# Revision: 0
# Processed by: cddbd v1.5.1PL2 Copyright (c) Steve Scherf et al.
# Submitted via: FreeRIP 2.943 
#
DISCID=9e0aa20d
DTITLE=Rod Steward - The Great American Songbook
DYEAR=1900
DGENRE=
TTITLE0=You Go To My Head
TTITLE1=They Can't Take That Away From Me
TTITLE2=The Way Jou Look Tonight
TTITLE3=It Had To Be You
TTITLE4=That Old Feeling
TTITLE5=These Foolish Things
TTITLE6=The Very Thought Of You
TTITLE7=Moonglow
TTITLE8=I'll Be Seeing You
TTITLE9=Every Time We Say Goodbey
TTITLE10=The Nearness Of You
TTITLE11=For All We Know
TTITLE12=We'll Be Together Again
EXTD=It Had To Be You
EXTT0=
EXTT1=
EXTT2=
EXTT3=
EXTT4=
EXTT5=
EXTT6=
EXTT7=
EXTT8=
EXTT9=
EXTT10=
EXTT11=
EXTT12=
PLAYORDER=
